<?xml version="1.0" standalone="no"?>
<!DOCTYPE svg PUBLIC "-//W3C//DTD SVG 20010904//EN"
 "http://www.w3.org/TR/2001/REC-SVG-20010904/DTD/svg10.dtd">
<svg version="1.0" xmlns="http://www.w3.org/2000/svg"
 width="500.000000pt" height="500.000000pt" viewBox="0 0 500.000000 500.000000"
 preserveAspectRatio="xMidYMid meet">
<metadata>
Created by potrace 1.14, written by Peter Selinger 2001-2017
</metadata>
<g transform="translate(0.000000,500.000000) scale(0.100000,-0.100000)"
fill="#000000" stroke="none">
<path d="M2235 4359 c-697 -95 -1312 -616 -1523 -1292 -67 -213 -77 -287 -77
-562 0 -222 3 -263 23 -365 56 -277 175 -545 336 -759 283 -376 666 -619 1136
-723 95 -20 131 -23 370 -23 296 0 358 9 585 82 557 179 1011 631 1195 1193
73 222 85 303 85 580 0 274 -10 356 -71 556 -196 652 -742 1150 -1419 1294
-82 18 -142 22 -335 25 -129 2 -266 -1 -305 -6z m446 -70 c210 -21 395 -73
594 -168 239 -114 427 -259 593 -456 140 -166 243 -342 316 -537 20 -53 36
-100 36 -103 0 -3 -107 -5 -238 -5 l-238 0 -23 54 c-44 107 -158 266 -270 376
-202 200 -418 317 -691 376 -119 26 -401 26 -520 0 -419 -90 -762 -351 -949
-724 l-41 -82 -235 0 c-139 0 -235 4 -235 9 0 35 88 239 152 354 204 362 521
635 925 796 249 99 546 139 824 110z m36 -534 c212 -34 417 -129 589 -271 302
-249 467 -601 467 -999 0 -477 -285 -926 -718 -1130 -199 -95 -341 -127 -550
-128 -350 -1 -661 127 -905 372 -248 249 -372 553 -373 916 0 205 39 368 136
560 176 352 529 615 911 679 110 19 331 19 443 1z m-1501 -830 c-79 -207 -87
-542 -18 -787 l19 -68 -233 0 -233 0 -10 53 c-28 140 -35 216 -36 387 0 174 6
233 37 378 l11 52 235 0 c206 0 233 -2 228 -15z m3046 -70 c48 -229 47 -491
-3 -732 l-10 -53 -233 0 -233 0 19 68 c30 108 48 239 48 352 0 140 -19 263
-66 428 l-6 22 233 -2 234 -3 17 -80z m-2978 -942 c332 -674 1135 -954 1802
-627 150 73 262 155 381 277 105 109 187 224 249 350 l38 77 233 0 c194 0 233
-2 233 -14 0 -24 -66 -187 -113 -283 -270 -537 -798 -907 -1397 -979 -822 -98
-1606 382 -1896 1161 -19 50 -34 96 -34 103 0 9 53 12 233 12 l233 0 38 -77z"/>
<path d="M2408 4146 c-7 -7 -26 -35 -42 -62 l-28 -48 -49 52 c-44 46 -53 51
-80 45 l-31 -6 67 -67 c59 -60 68 -73 72 -114 5 -43 8 -46 35 -46 29 0 29 0
22 49 -6 48 -5 52 49 130 l56 81 -29 0 c-16 0 -35 -6 -42 -14z"/>
<path d="M2550 4143 c0 -30 -20 -197 -26 -215 -4 -15 1 -18 30 -18 l36 0 0 62
c0 59 1 61 16 40 60 -85 199 -60 199 36 0 70 -39 92 -192 107 -56 5 -63 4 -63
-12z m183 -55 c20 -10 23 -48 5 -66 -7 -7 -28 -12 -49 -12 -49 0 -89 32 -89
71 l0 30 58 -7 c31 -3 65 -11 75 -16z"/>
<path d="M2881 3989 l-93 -99 28 -10 c24 -9 31 -8 52 13 l24 24 61 -19 c65
-20 77 -30 77 -64 0 -15 8 -24 26 -28 15 -4 28 -5 31 -3 2 3 -5 53 -16 111
-12 59 -21 118 -21 130 0 17 -7 26 -24 30 -13 3 -30 8 -38 10 -7 3 -54 -39
-107 -95z m126 -55 c-3 -3 -24 0 -47 6 l-43 11 39 40 39 40 9 -46 c4 -25 6
-48 3 -51z"/>
<path d="M1923 4060 c-21 -9 -21 -9 -3 -57 9 -26 26 -80 36 -120 l18 -71 27
13 c14 8 59 21 99 29 82 17 100 28 93 56 -3 11 -7 20 -9 20 -1 0 -39 -12 -84
-26 -44 -15 -83 -24 -85 -22 -2 2 -15 45 -27 96 -13 50 -27 92 -33 91 -5 0
-20 -4 -32 -9z"/>
<path d="M1776 3997 c-16 -12 -15 -17 22 -82 22 -39 38 -72 37 -74 -2 -1 -53
13 -114 34 -107 35 -125 37 -158 10 -5 -3 109 -215 115 -215 4 1 17 6 29 13
21 12 21 12 -22 87 -24 41 -43 76 -41 77 1 1 51 -13 112 -32 178 -57 183 -53
112 88 -29 59 -58 107 -64 107 -5 0 -18 -6 -28 -13z"/>
<path d="M3220 3988 c0 -7 -25 -55 -55 -107 -31 -52 -54 -95 -53 -96 10 -8 50
-26 52 -23 2 2 20 36 41 76 21 40 40 71 42 68 3 -2 18 -55 33 -117 26 -102 45
-139 70 -139 4 0 17 19 30 43 13 23 40 70 61 105 l38 62 -27 14 -27 14 -41
-76 -42 -76 -10 39 c-6 22 -15 59 -21 83 -29 114 -31 119 -56 130 -32 15 -35
15 -35 0z"/>
<path d="M1444 3780 c-74 -17 -134 -88 -134 -159 0 -33 7 -49 34 -79 31 -33
40 -37 84 -37 92 0 183 97 168 179 -7 34 -59 96 -82 96 -7 0 -18 2 -26 4 -7 2
-27 1 -44 -4z m76 -70 c33 -33 30 -83 -7 -122 -31 -33 -74 -44 -105 -27 -57
30 -63 81 -17 134 26 29 38 35 70 35 26 0 46 -7 59 -20z"/>
<path d="M3512 3764 c-41 -29 -30 -65 52 -168 31 -40 30 -68 -4 -59 -29 8
-109 89 -116 119 -7 29 -15 30 -38 6 -15 -18 -14 -21 12 -58 40 -55 94 -100
137 -114 30 -10 40 -9 60 4 40 26 33 65 -26 141 -46 61 -57 95 -29 95 17 0
108 -90 116 -113 6 -20 7 -20 20 -2 8 10 14 25 14 32 0 21 -70 93 -111 114
-46 23 -58 24 -87 3z"/>
<path d="M2225 3648 c-114 -67 -157 -230 -94 -362 15 -33 66 -89 176 -193 191
-182 187 -179 216 -160 12 8 95 86 184 173 154 151 163 162 179 218 38 137
-17 288 -123 332 -70 30 -169 11 -226 -44 -20 -19 -32 -24 -41 -17 -85 63
-100 70 -165 73 -54 2 -73 -1 -106 -20z m187 -90 c15 -10 35 -32 45 -48 25
-43 63 -41 98 6 38 50 82 74 134 74 95 0 155 -122 119 -244 -10 -33 -41 -69
-156 -181 -79 -77 -148 -140 -152 -140 -4 0 -66 53 -136 119 -180 165 -210
227 -168 348 34 102 127 130 216 66z"/>
<path d="M3078 3219 c-25 -14 -22 -41 6 -68 53 -50 104 2 52 54 -28 28 -33 29
-58 14z"/>
<path d="M3215 3200 c-24 -25 -27 -34 -19 -48 17 -26 43 -26 70 -1 26 25 31
48 12 67 -18 18 -32 15 -63 -18z"/>
<path d="M3089 3072 c-24 -22 -30 -33 -25 -50 10 -29 46 -29 74 1 27 29 28 53
2 67 -16 8 -25 5 -51 -18z"/>
<path d="M3206 3084 c-22 -22 -20 -31 14 -65 25 -25 33 -28 50 -19 27 14 25
46 -5 75 -28 29 -38 31 -59 9z"/>
<path d="M2767 3045 c-54 -14 -61 -19 -184 -139 l-92 -90 -74 71 c-53 51 -85
74 -115 82 -78 21 -172 -21 -206 -93 -45 -95 -30 -153 67 -253 l70 -73 -130
-133 c-114 -116 -135 -142 -171 -217 -47 -98 -62 -163 -62 -261 0 -446 470
-733 872 -532 94 48 302 245 320 304 15 53 -2 109 -53 164 -32 34 -37 45 -26
54 8 6 19 28 25 49 18 61 0 106 -74 182 l-64 66 20 39 c22 44 26 95 9 128 -6
12 -40 51 -75 87 l-63 65 105 112 c138 147 157 196 115 290 -35 77 -129 120
-214 98z m126 -105 c21 -24 27 -40 27 -77 l0 -47 -325 -326 c-179 -179 -325
-333 -325 -342 0 -10 9 -22 21 -29 19 -10 38 7 213 180 105 105 197 191 203
191 6 0 36 -27 67 -61 87 -94 89 -89 -119 -299 -96 -97 -175 -183 -175 -193 0
-9 9 -21 21 -27 19 -11 35 2 165 131 l144 143 51 -49 c61 -60 81 -99 67 -135
-5 -14 -62 -78 -126 -143 -99 -100 -115 -120 -106 -135 23 -36 45 -25 130 59
93 92 98 93 142 29 39 -59 32 -75 -81 -190 -149 -153 -254 -202 -427 -201
-385 1 -629 402 -459 751 40 82 54 97 373 419 182 183 349 347 371 363 52 39
106 35 148 -12z m-583 -61 c8 -4 40 -33 70 -63 l55 -56 -78 -77 -77 -78 -60
60 c-75 74 -89 110 -63 163 29 60 94 82 153 51z"/>
<path d="M1728 2769 c-25 -14 -22 -41 6 -68 53 -50 104 2 52 54 -28 28 -33 29
-58 14z"/>
<path d="M1865 2750 c-24 -25 -27 -34 -19 -48 17 -26 43 -26 70 -1 26 25 31
48 12 67 -18 18 -32 15 -63 -18z"/>
<path d="M1736 2621 c-20 -21 -26 -35 -21 -50 9 -28 46 -27 73 2 27 29 28 53
3 67 -26 13 -23 14 -55 -19z"/>
<path d="M1856 2634 c-21 -20 -20 -26 5 -58 15 -20 29 -26 48 -24 38 4 41 48
5 77 -32 25 -38 26 -58 5z"/>
<path d="M783 2663 c-7 -2 -13 -16 -13 -30 0 -22 3 -24 24 -19 34 8 58 -17 49
-52 -3 -15 -23 -67 -45 -115 -21 -48 -38 -99 -38 -113 0 -24 1 -25 68 -22 61
3 67 5 70 26 3 20 -1 22 -37 22 -23 0 -41 4 -41 9 0 5 16 43 35 86 20 43 38
97 42 121 5 37 2 46 -20 68 -25 25 -62 32 -94 19z"/>
<path d="M977 2659 c-32 -19 -47 -73 -47 -168 0 -106 19 -168 55 -177 65 -16
97 25 103 135 6 108 -4 168 -33 197 -26 26 -49 30 -78 13z m56 -80 c13 -49 5
-195 -11 -211 -11 -11 -16 -10 -28 6 -17 23 -20 180 -4 221 13 34 32 28 43
-16z"/>
<path d="M3908 2733 c-12 -3 -18 -14 -18 -33 0 -28 2 -29 26 -20 37 15 58 -4
51 -47 -3 -18 -24 -73 -46 -124 -57 -128 -57 -129 28 -129 65 0 69 1 73 25 5
22 2 24 -38 27 l-42 3 39 90 c46 107 50 161 16 193 -22 21 -50 25 -89 15z"/>
<path d="M4098 2723 c-34 -39 -42 -69 -42 -163 -1 -121 20 -173 72 -178 43 -4
67 17 81 73 14 55 14 158 0 208 -19 69 -76 100 -111 60z m56 -49 c24 -63 17
-231 -11 -241 -8 -3 -19 0 -24 8 -12 20 -11 206 1 230 13 23 26 24 34 3z"/>
<path d="M2985 1141 c-46 -12 -91 -38 -114 -67 -26 -33 -28 -109 -5 -142 48
-69 169 -68 251 3 l37 31 -14 48 c-7 25 -16 48 -20 51 -3 2 -33 -4 -66 -14
-44 -14 -59 -23 -59 -37 0 -20 18 -23 68 -9 23 6 27 4 27 -14 0 -28 -42 -53
-99 -59 -43 -4 -50 -1 -69 23 -39 50 -24 96 41 126 23 10 59 19 81 19 31 0 37
3 32 16 -3 9 -6 20 -6 25 0 10 -41 10 -85 0z"/>
<path d="M1965 1127 c-45 -21 -67 -51 -72 -99 -8 -78 57 -140 159 -154 65 -9
93 7 112 62 9 26 15 48 13 50 -1 1 -31 11 -67 22 -47 14 -67 17 -72 8 -15 -23
-7 -35 28 -42 38 -7 55 -30 33 -45 -19 -13 -84 -2 -116 18 -70 46 -37 143 50
143 12 0 46 -11 76 -25 30 -14 55 -24 57 -23 1 2 4 12 6 23 7 44 -146 89 -207
62z"/>
<path d="M2745 1028 c3 -29 8 -68 11 -85 3 -18 2 -33 -1 -33 -4 0 -46 34 -94
75 -49 41 -95 75 -104 75 -38 0 -44 -10 -37 -53 4 -23 11 -77 15 -119 l7 -78
30 0 c29 0 30 2 25 33 -3 17 -9 59 -13 92 -6 58 -6 59 12 44 11 -8 54 -45 97
-82 73 -63 108 -80 122 -58 3 6 0 62 -6 125 l-12 116 -29 0 -29 0 6 -52z"/>
<path d="M2306 1052 c-4 -10 -35 -61 -71 -113 l-64 -94 27 -7 c22 -7 31 -3 52
21 21 24 31 28 60 25 95 -13 98 -14 109 -44 8 -24 16 -30 40 -30 29 0 30 1 19
28 -6 15 -28 72 -49 127 l-37 100 -40 3 c-32 2 -42 -1 -46 -16z m65 -87 l17
-45 -39 0 c-21 0 -40 4 -44 10 -5 9 34 80 45 80 3 0 12 -20 21 -45z"/>
</g>
</svg>
